<svg xmlns="http://www.w3.org/2000/svg" viewBox="0 0 512 512"><path d="M448.284 359.845l11.394 22.955c3.146 6.338.558 14.027-5.78 17.174L401.47 426.31c-12.853 6.38-28.475.956-34.588-12.057l-50.275-107H204.746c-12.754 0-23.566-9.378-25.37-22.003-27.14-189.975-25.58-178.173-25.884-183.014 0-29.117 24.28-52.563 53.698-51.197 26.645 1.237 48.09 23.148 48.792 49.813.695 26.375-18.542 48.39-43.733 52.087l3.74 26.18h104.079c7.077 0 12.813 5.736 12.813 12.813v25.627c0 7.077-5.736 12.814-12.813 12.814H223.31L226.972 256h105.91a25.627 25.627 0 0 1 23.194 14.729l46.06 98.03 28.973-14.695c6.339-3.147 14.029-.559 17.175 5.78zm-147.95-26.964h-19.626c-6.237 43.41-43.669 76.882-88.776 76.882-49.458 0-89.695-40.237-89.695-89.695 0-33.24 18.175-62.313 45.107-77.807a332180.37 332180.37 0 0 0-7.598-53.123c-51.96 20.784-88.763 71.637-88.763 130.93 0 77.72 63.23 140.949 140.95 140.949 57.556 0 107.157-34.683 129.024-84.243l-20.624-43.893z"/></svg>