<svg xmlns="http://www.w3.org/2000/svg" height="512" width="512"><path d="M348.35 42.783c-3.848 0-7.726.155-11.657.467-65.014 5.172-116.12 67.743-106.77 132 3.367 23.127 8.65 46.074 14.54 68.716 10.707 41.17 21.085 82.337 22.312 125.12.41 14.226.237 28.466.142 42.745l53.409-159.08-8.065-2.679c-4.58-1.263-2.994-6.048-2.994-6.048.757-2.274 2.81-3.509 4.977-3.3-1.641-1.115-3.202-2.377-4.707-3.686-20.678-18.013-28.179-53.728-17.03-87.318.013-.047.033-.08.047-.129.306-.918.632-1.825.98-2.72.126-.325.266-.643.397-.966.246-.61.492-1.216.756-1.812.162-.367.336-.73.506-1.094a57.9 57.9 0 0 1 .768-1.608c.188-.375.383-.74.579-1.111.266-.505.539-1.01.815-1.504a60.91 60.91 0 0 1 1.513-2.543c.221-.353.442-.704.67-1.052.315-.48.644-.955.97-1.425.226-.324.45-.653.683-.976.361-.495.732-.98 1.105-1.46.217-.284.426-.568.647-.844.486-.604.983-1.196 1.489-1.78.122-.14.237-.287.36-.427a63.567 63.567 0 0 1 1.927-2.09c.221-.231.452-.45.675-.674.45-.451.898-.901 1.36-1.336.276-.262.567-.517.85-.777.42-.38.839-.762 1.27-1.133.308-.265.619-.52.932-.779.419-.347.843-.692 1.271-1.03.325-.255.657-.504.986-.754.43-.327.864-.643 1.301-.955.336-.24.672-.48 1.012-.712.452-.308.908-.605 1.366-.902.339-.218.674-.436 1.014-.648.487-.3.98-.585 1.472-.876.325-.187.644-.38.97-.562.588-.33 1.181-.64 1.775-.946.244-.124.483-.258.727-.38a64.823 64.823 0 0 1 2.523-1.192c.283-.126.574-.24.86-.36.582-.249 1.164-.497 1.75-.73.362-.14.727-.27 1.092-.406.523-.19 1.043-.385 1.573-.564.39-.133.783-.257 1.174-.383a61.347 61.347 0 0 1 1.538-.471c.403-.12.811-.228 1.219-.338a77.412 77.412 0 0 1 1.54-.393c.411-.102.823-.193 1.235-.287a70.994 70.994 0 0 1 1.576-.32 59.6 59.6 0 0 1 1.23-.231c.547-.09 1.102-.176 1.655-.254.389-.054.78-.121 1.17-.168.627-.08 1.255-.138 1.883-.196.325-.033.646-.068.972-.09.94-.067 1.885-.127 2.83-.157.28-.007.558-.004.837-.007.684-.007 1.366-.02 2.052-.007.39.005.776.02 1.16.047.582.02 1.166.046 1.748.068.419.02.837.067 1.256.101.554.047 1.11.101 1.665.16.428.046.86.1 1.288.156.29.047.58.067.87.113a.15.15 0 0 1-.046.007 62.803 62.803 0 0 1 10.72 2.523c32.576 10.813 50.218 45.987 39.405 78.564-10.155 30.603-31.46 51.761-54.476 58.097.013.002.02.005.027.007-.635.175-1.27.34-1.905.49-.254.053-.508.112-.763.167-.667.152-1.337.29-2.009.414-.272.053-.545.101-.821.153-.817.138-1.636.258-2.455.358-.288.047-.573.067-.861.101-.843.09-1.686.17-2.533.22-.184.007-.369.007-.553.02-.757.047-1.513.054-2.27.054-.23.002-.464.007-.694.007a45.144 45.144 0 0 1-2.592-.09c-.013 0-.02.004-.027.005a.077.077 0 0 1-.026.007 4.794 4.794 0 0 1 1.663 5.335c-.827 2.5-3.549 3.92-6.048 3.09l-6.983-2.327-53.385 158.69c24.054-38.168 55.57-70.93 90.17-99.902 27.664-23.164 55.715-46.133 81.157-71.62 25.742-25.784 34.249-59.387 28.012-94.931-11.08-63.293-61.91-104.47-124.75-104.48zm-28.871 101.83l-10.961 43.547c2.157.893 5.764 2.153 10.706 3.396 8.83 2.223 14.594 2.132 18.468.376 3.317-1.48 5.958-4.174 6.984-8.26 1.444-5.73-1.335-10.565-6.076-13.159l.033-.13c5.42-.668 8.64-3.712 9.618-7.601 1.03-4.084-.38-7.661-3.064-10.087-2.746-2.723-6.354-4.262-12.48-5.806-5.073-1.275-10.458-2.14-13.23-2.276zm8.273 9.156c.842.002 2.127.186 4.366.751 4.548 1.144 6.668 3.57 5.821 6.93-.621 2.472-2.645 3.922-5.874 3.922-1.072 0-2.275-.158-3.605-.494l-3.294-.829 2.586-10.28zm31.519.86l-11.016 43.748 9.95 2.502 4.397-17.458 2.967.746c4.131 1.11 5.675 3.04 5.518 8.956-.124 5.784.098 9.624.426 11.109l10.28 2.586c-.426-1.929-.286-8.058-.392-13.481-.09-4.367-1.075-7.694-3.856-9.726l.054-.199c4.168-.421 9.164-3.295 10.575-8.895 1.029-4.085.358-7.547-1.813-10.335-2.515-3.367-6.878-5.516-13.466-7.173-5.404-1.36-10.246-2.16-13.623-2.38zm8.223 9.354c.771-.007 2.19.204 4.628.816 4.612 1.162 6.849 3.966 5.836 7.985-.767 3.047-3.143 4.786-6.547 4.786-.937 0-1.954-.132-3.033-.402l-3.954-.994 3.07-12.19zm-44.138 7.246l3.428.865c5.004 1.259 8.579 4.049 7.448 8.53-.865 3.448-3.518 4.771-6.674 4.771-1.128 0-2.32-.167-3.517-.469-1.71-.433-2.895-.73-3.836-1.179l3.152-12.518zm-67.019 257.46c-.11 0-.22 0-.329.002v.002c-15.22.18-27.107 12.053-27.193 27.159-.085 15.536 12.173 27.966 27.474 27.86 14.97-.101 27.205-12.301 27.293-27.215.094-15.432-12.069-27.805-27.246-27.807z"/></svg>