<svg xmlns="http://www.w3.org/2000/svg" width="512mm" height="512mm" viewBox="0 0 51200 51200" clip-rule="evenodd" fill-rule="evenodd" image-rendering="optimizeQuality" shape-rendering="geometricPrecision" text-rendering="geometricPrecision"><path d="M29804.68 39151.58c1253.937 1298.415 1683.368 3098.125 1054.968 4745.59-991.985 2604.257-4241.343 4020.26-7251.651 3162.488-3011.74-857.77-4649.302-3667.496-3657.318-6271.753 639.852-1677.171 2245.922-2907.51 4178.36-3288.741l31.492-226.511c443.744-3259.034 194.675-6414.097-539.652-9626.096-541.082-2364.13-1361.295-4675.037-2021.186-7015.65-234.756-833.016-387.92-1678.41-589.752-2517.614-572.574-2380.221-523.905-4614.387 415.117-6922.818 910.393-2240.354 2416.262-4153.938 4544.807-5660.298C29365.229 3126.438 33693.89 2139.94 38019.687 2777.39c3422.562 503.77 6677.646 2048.5 8977.962 4301.232 1576.01 1543.492 2661.039 3351.867 3250.79 5343.43 685.657 2314.62 595.477 4589.632-206.127 6872.07-430.862 1229.1-1099.342 2401.263-1951.046 3453.363-677.069 839.205-1484.399 1491.507-2297.454 2221.788-1421.415 1276.135-3011.74 2376.508-4614.947 3473.168-4520.473 3089.46-8358.15 6053.907-11211.001 10460.35l-161.753 248.79zm-2555.112-1563.297c518.18-3807.364 168.91-7200.077-578.3-10464.063-553.965-2421.068-1378.472-4744.352-2051.247-7130.762-224.735-797.12-370.741-1611.57-565.417-2428.495-393.644-1632.611-529.63-3433.559 303.465-5483.297 814.486-2002.703 2104.21-3426.133 3580.02-4470.806 2426.282-1718.018 5784.43-2737.936 9554.83-2182.18 3083.312 453.022 5591.186 1885.116 7168.628 3429.847 1288.292 1261.282 2112.798 2692.138 2567.995 4229.442 475.236 1605.38 553.965 3364.244-168.91 5423.884-369.31 1054.576-937.59 1968.046-1523.047 2693.376-592.614 733.995-1306.9 1284.8-1988.263 1896.256-1329.804 1194.443-2815.634 2211.885-4304.326 3229.328-4434.587 3031.286-8717.441 6190.061-11996.86 11257.47zM26227.523 40181.4c1379.904 393.61 2129.976 1679.647 1676.21 2872.852-455.196 1193.205-1942.457 1841.794-3322.36 1449.422-1379.904-393.609-2129.976-1679.646-1674.78-2872.851 455.197-1193.206 1942.458-1841.794 3322.362-1449.423zM42869.39 17538.97c1331.235-3494.21-864.587-7258.252-4904.097-8409.373-4040.942-1151.121-8393.937 747.61-9725.172 4240.582-1331.235 3492.972 864.587 7258.252 4904.097 8409.373 4039.51 1151.121 8393.937-747.61 9725.172-4240.582zM28147.078 39353.335c1407.1 965.457 2042.658 2621.586 1447.18 4182.407-761.523 2000.228-3256.514 3088.223-5569.714 2428.495-2313.2-658.491-3571.43-2815.915-2808.476-4816.143 602.634-1581.863 2290.297-2594.355 4113.945-2620.348l153.164-1120.177c462.353-3396.426 208.99-6639.37-556.829-9985.047-545.376-2381.46-1369.883-4708.457-2034.07-7065.161-231.892-820.638-380.76-1653.654-579.73-2479.243-522.474-2173.515-492.414-4192.31 366.447-6306.411 830.232-2042.312 2191.527-3778.896 4131.122-5151.577C29907.743 4228.05 33844.19 3330.67 37792.09 3911.181c3121.96 459.21 6103.64 1872.738 8203.556 3927.427 1438.592 1408.577 2420.557 3051.09 2958.776 4866.891 626.969 2116.578 542.514 4162.603-190.38 6251.95-390.782 1112.75-997.71 2174.752-1767.823 3127.831-641.283 793.407-1398.512 1393.723-2165.762 2081.92-1379.903 1239.003-2924.422 2304.718-4481.824 3369.196-4687.95 3203.335-8582.886 6221.005-11547.388 10801.972l-657.029 1013.73zM41178.865 17057.48c1023.476-2687.187-664.186-5581.081-3770.4-6466.083-3107.647-885.002-6454.343 574.323-7477.819 3260.272-1023.476 2685.95 664.186 5581.081 3770.4 6466.083 3106.215 885.002 6454.343-574.323 7477.819-3260.272zm-1265.389-360.19c793.015-2083.158-513.885-4325.987-2922.99-5011.709-2409.106-685.722-5002.867 444.358-5795.882 2527.516-793.016 2083.158 513.885 4325.987 2922.99 5011.709 2407.675 685.722 5002.867-444.358 5795.882-2527.516z"/></svg>