<?xml version="1.0" encoding="UTF-8" standalone="no"?>
<!-- Creator: CorelDRAW 2017 -->

<svg
   xmlns:dc="http://purl.org/dc/elements/1.1/"
   xmlns:cc="http://creativecommons.org/ns#"
   xmlns:rdf="http://www.w3.org/1999/02/22-rdf-syntax-ns#"
   xmlns:svg="http://www.w3.org/2000/svg"
   xmlns="http://www.w3.org/2000/svg"
   xmlns:sodipodi="http://sodipodi.sourceforge.net/DTD/sodipodi-0.dtd"
   xmlns:inkscape="http://www.inkscape.org/namespaces/inkscape"
   xml:space="preserve"
   width="512mm"
   height="512mm"
   version="1.1"
   style="clip-rule:evenodd;fill-rule:evenodd;image-rendering:optimizeQuality;shape-rendering:geometricPrecision;text-rendering:geometricPrecision"
   viewBox="0 0 51200 51200"
   id="svg2"
   inkscape:version="0.91 r13725"
   sodipodi:docname="logo-agita.svg"><metadata
     id="metadata14"><rdf:RDF><cc:Work
         rdf:about=""><dc:format>image/svg+xml</dc:format><dc:type
           rdf:resource="http://purl.org/dc/dcmitype/StillImage" /><dc:title /></cc:Work></rdf:RDF></metadata><sodipodi:namedview
     pagecolor="#ffffff"
     bordercolor="#666666"
     borderopacity="1"
     objecttolerance="10"
     gridtolerance="10"
     guidetolerance="10"
     inkscape:pageopacity="0"
     inkscape:pageshadow="2"
     inkscape:window-width="1920"
     inkscape:window-height="1026"
     id="namedview12"
     showgrid="false"
     inkscape:zoom="0.13008681"
     inkscape:cx="1914.4132"
     inkscape:cy="557.68983"
     inkscape:window-x="0"
     inkscape:window-y="0"
     inkscape:window-maximized="1"
     inkscape:current-layer="svg2" /><defs
     id="defs4"><style
       type="text/css"
       id="style6"><![CDATA[
    .fil0 {fill:#000000}
   ]]></style></defs><g
     id="Camada_x0020_1"
     transform="matrix(1.4314353,0,0,1.2377647,-43909.949,-37773.238)"><metadata
       id="CorelCorpID_0Corel-Layer" /><path
       class="fil0"
       d="m 47443,62674 c 876,1049 1176,2503 737,3834 -693,2104 -2963,3248 -5066,2555 -2104,-693 -3248,-2963 -2555,-5067 447,-1355 1569,-2349 2919,-2657 l 22,-183 c 310,-2633 136,-5182 -377,-7777 -378,-1910 -951,-3777 -1412,-5668 -164,-673 -271,-1356 -412,-2034 -400,-1923 -366,-3728 290,-5593 636,-1810 1688,-3356 3175,-4573 2372,-1942 5396,-2739 8418,-2224 2391,407 4665,1655 6272,3475 1101,1247 1859,2708 2271,4317 479,1870 416,3708 -144,5552 -301,993 -768,1940 -1363,2790 -473,678 -1037,1205 -1605,1795 -993,1031 -2104,1920 -3224,2806 -3158,2496 -5839,4891 -7832,8451 l -113,201 z m -1785,-1263 c 362,-3076 118,-5817 -404,-8454 -387,-1956 -963,-3833 -1433,-5761 -157,-644 -259,-1302 -395,-1962 -275,-1319 -370,-2774 212,-4430 569,-1618 1470,-2768 2501,-3612 1695,-1388 4041,-2212 6675,-1763 2154,366 3906,1523 5008,2771 900,1019 1476,2175 1794,3417 332,1297 387,2718 -118,4382 -258,852 -655,1590 -1064,2176 -414,593 -913,1038 -1389,1532 -929,965 -1967,1787 -3007,2609 -3098,2449 -6090,5001 -8381,9095 l 0,0 z m -714,2095 c 964,318 1488,1357 1171,2321 -318,964 -1357,1488 -2321,1171 -964,-318 -1488,-1357 -1170,-2321 318,-964 1357,-1488 2321,-1171 z M 56570,45213 c 930,-2823 -604,-5864 -3426,-6794 -2823,-930 -5864,604 -6794,3426 -930,2822 604,5864 3426,6794 2822,930 5864,-604 6794,-3426 z M 46285,62837 c 983,780 1427,2118 1011,3379 -532,1616 -2275,2495 -3891,1962 -1616,-532 -2495,-2275 -1962,-3891 421,-1278 1600,-2096 2874,-2117 l 107,-905 c 323,-2744 146,-5364 -389,-8067 -381,-1924 -957,-3804 -1421,-5708 -162,-663 -266,-1336 -405,-2003 -365,-1756 -344,-3387 256,-5095 580,-1650 1531,-3053 2886,-4162 2164,-1771 4914,-2496 7672,-2027 2181,371 4264,1513 5731,3173 1005,1138 1691,2465 2067,3932 438,1710 379,3363 -133,5051 -273,899 -697,1757 -1235,2527 -448,641 -977,1126 -1513,1682 -964,1001 -2043,1862 -3131,2722 -3275,2588 -5996,5026 -8067,8727 l -459,819 z m 9104,-18013 c 715,-2171 -464,-4509 -2634,-5224 -2171,-715 -4509,464 -5224,2634 -715,2170 464,4509 2634,5224 2170,715 4509,-464 5224,-2634 z m -884,-291 c 554,-1683 -359,-3495 -2042,-4049 -1683,-554 -3495,359 -4049,2042 -554,1683 359,3495 2042,4049 1682,554 3495,-359 4049,-2042 z"
       id="path10"
       inkscape:connector-curvature="0"
       style="fill:#000000" /></g></svg>