<?xml version="1.0" encoding="UTF-8" standalone="no"?>
<svg id="svg2" xmlns:rdf="http://www.w3.org/1999/02/22-rdf-syntax-ns#" xmlns="http://www.w3.org/2000/svg" xml:space="preserve" height="512" viewBox="0 0 512 512" width="512" version="1.1" xmlns:cc="http://creativecommons.org/ns#" xmlns:dc="http://purl.org/dc/elements/1.1/">
    <path id="path30" fill="#000000" d="m348.35 42.783c-3.8484 0-7.726 0.15459-11.657 0.4671-65.014 5.1719-116.12 67.743-106.77 132 3.3674 23.127 8.6505 46.074 14.54 68.716 10.707 41.169 21.085 82.337 22.312 125.12 0.4098 14.226 0.23655 28.466 0.14193 42.745l53.409-159.08-8.0646-2.6789c-4.5803-1.2636-2.9947-6.048-2.9947-6.048 0.75716-2.2741 2.8113-3.5087 4.9772-3.2993-1.6411-1.1164-3.2014-2.3775-4.7067-3.6871-20.678-18.013-28.179-53.728-17.03-87.318 0.0133-0.0466 0.0333-0.0793 0.0466-0.12861 0.30651-0.91794 0.63235-1.8252 0.97991-2.7204 0.1266-0.3245 0.26654-0.64301 0.39714-0.96532 0.24654-0.61036 0.49175-1.2161 0.75669-1.8122 0.16125-0.36715 0.33516-0.7307 0.50508-1.0938 0.24854-0.53906 0.50308-1.0769 0.76808-1.608 0.18857-0.37514 0.38314-0.7409 0.57905-1.1118 0.26586-0.50442 0.53906-1.0093 0.81526-1.504 0.20723-0.36981 0.41779-0.73296 0.63168-1.0972 0.28786-0.48843 0.58238-0.96865 0.88149-1.4454 0.22123-0.35316 0.44178-0.70365 0.6698-1.0521 0.31518-0.48043 0.64368-0.95519 0.97045-1.4246 0.22522-0.3245 0.45044-0.65367 0.68293-0.97651 0.36115-0.49509 0.73197-0.97991 1.1048-1.4605 0.21656-0.28319 0.42579-0.56705 0.64701-0.84344 0.48576-0.6037 0.98244-1.1955 1.4889-1.7802 0.12194-0.1406 0.23721-0.28719 0.35915-0.42712 0.62836-0.71378 1.2717-1.4092 1.9277-2.0904 0.22122-0.23055 0.45244-0.44844 0.67539-0.67319 0.44911-0.45111 0.89762-0.90102 1.3602-1.3356 0.27586-0.26254 0.56639-0.51774 0.84938-0.77695 0.42112-0.37981 0.83911-0.76229 1.2694-1.1332 0.30851-0.2652 0.61969-0.52107 0.93267-0.77921 0.41912-0.34716 0.84318-0.69239 1.2713-1.0307 0.3245-0.25388 0.65634-0.50375 0.98557-0.75329 0.43046-0.32717 0.86431-0.64302 1.3016-0.95506 0.33583-0.23988 0.6714-0.4791 1.0121-0.71158 0.4511-0.30851 0.90781-0.6057 1.3659-0.90215 0.3385-0.21856 0.6734-0.43645 1.0139-0.64834 0.48709-0.29919 0.97938-0.58504 1.4719-0.87617 0.32451-0.18724 0.64368-0.37981 0.97045-0.56172 0.58704-0.32916 1.1808-0.64034 1.7746-0.94606 0.24388-0.12393 0.48243-0.25787 0.72644-0.37981 0.83319-0.41646 1.6743-0.81193 2.5236-1.1917 0.28319-0.1266 0.57371-0.23988 0.8589-0.36115 0.58238-0.24788 1.1648-0.49642 1.7517-0.72851 0.36115-0.14126 0.72571-0.27053 1.0916-0.40713 0.52241-0.19057 1.0428-0.38447 1.5721-0.56371 0.39114-0.13327 0.78348-0.25721 1.1748-0.38248 0.51107-0.16392 1.0224-0.32117 1.538-0.47177 0.40246-0.11927 0.81086-0.22788 1.2183-0.33783 0.51108-0.13526 1.0267-0.26853 1.54-0.39313 0.41179-0.10129 0.82339-0.19324 1.2353-0.28653 0.52507-0.11461 1.0488-0.21856 1.5758-0.32117 0.40713-0.0793 0.81773-0.15925 1.2297-0.23055 0.54773-0.09 1.1028-0.17591 1.6552-0.25388 0.38914-0.0533 0.77968-0.1206 1.1711-0.16791 0.62636-0.0793 1.254-0.13793 1.8823-0.1959 0.32451-0.0333 0.64568-0.068 0.97238-0.09 0.93913-0.0673 1.8841-0.12661 2.8302-0.15659 0.27853-0.007 0.55772-0.004 0.83605-0.007 0.68459-0.007 1.3666-0.02 2.0526-0.007 0.38914 0.005 0.77535 0.02 1.1597 0.0466 0.58238 0.02 1.1656 0.0466 1.7479 0.068 0.41912 0.02 0.83731 0.0673 1.2562 0.10128 0.55439 0.0466 1.1102 0.10128 1.6648 0.15925 0.42845 0.0466 0.86017 0.10129 1.2882 0.15659 0.28986 0.0466 0.58038 0.0673 0.87037 0.11261-0.0133 0.005-0.0333 0.007-0.0466 0.007 3.5791 0.52108 7.1647 1.3453 10.721 2.5237 32.575 10.813 50.217 45.987 39.404 78.564-10.155 30.603-31.46 51.761-54.476 58.097 0.0133 0.002 0.02 0.005 0.0267 0.007-0.63502 0.17458-1.2698 0.34049-1.905 0.48909-0.25321 0.0533-0.50708 0.11261-0.76242 0.16791-0.6674 0.15193-1.337 0.28986-2.0091 0.4138-0.27186 0.0533-0.54506 0.10128-0.82105 0.15325-0.81693 0.13793-1.6361 0.25721-2.4554 0.35782-0.28785 0.0466-0.57304 0.0673-0.8609 0.10129-0.84245 0.0899-1.6861 0.16925-2.5331 0.21989-0.18391 0.007-0.36848 0.007-0.55239 0.02-0.75722 0.0466-1.5129 0.0533-2.2702 0.0533-0.22989 0.002-0.46444 0.007-0.69426 0.007-0.8631-0.007-1.7287-0.0333-2.5918-0.09-0.0133 0-0.02 0.004-0.0266 0.005-0.0133 0.005-0.02 0.007-0.0267 0.007 1.595 1.1969 2.328 3.3395 1.6629 5.3349-0.82632 2.4996-3.5485 3.9198-6.048 3.0911l-6.9826-2.3277-53.385 158.69c24.054-38.168 55.57-70.929 90.171-99.902 27.663-23.164 55.714-46.133 81.156-71.619 25.742-25.785 34.249-59.388 28.012-94.932-11.08-63.293-61.91-104.47-124.75-104.48zm-28.871 101.83-10.961 43.547c2.1566 0.89302 5.7641 2.1529 10.706 3.3956 8.8291 2.2234 14.594 2.1328 18.468 0.37647 3.3166-1.4799 5.958-4.1741 6.9844-8.2596 1.4431-5.7311-1.335-10.565-6.0764-13.159l0.0333-0.13061c5.4204-0.6676 8.6397-3.7114 9.6179-7.6013 1.0289-4.0831-0.38114-7.661-3.0647-10.087-2.7459-2.7227-6.3533-4.2614-12.48-5.8058-5.0729-1.275-10.458-2.1401-13.229-2.2758zm8.2728 9.1563c0.84238 0.002 2.1269 0.18524 4.3664 0.75102 4.5481 1.1439 6.6679 3.5693 5.821 6.9296-0.62169 2.472-2.6448 3.9217-5.8739 3.9217-1.0727 0-2.2755-0.15792-3.6058-0.49375l-3.2936-0.82879 2.586-10.28zm31.519 0.85924-11.016 43.748 9.9509 2.5029 4.3965-17.458 2.9663 0.74543c4.1315 1.1096 5.675 3.0406 5.5184 8.9559-0.12394 5.7839 0.098 9.624 0.42579 11.109l10.28 2.586c-0.42578-1.9288-0.28585-8.0582-0.3918-13.481-0.09-4.3663-1.0752-7.6934-3.8554-9.7258l0.0533-0.19857c4.1683-0.42179 9.1642-3.2953 10.575-8.8952 1.0288-4.0854 0.35782-7.5476-1.8123-10.335-2.5157-3.3672-6.8786-5.5164-13.466-7.1737-5.4043-1.3602-10.246-2.1588-13.623-2.3799zm8.2236 9.3549c0.77108-0.007 2.1898 0.20323 4.6273 0.81533 4.6124 1.1624 6.8488 3.9666 5.8362 7.9852-0.76642 3.0475-3.1433 4.7862-6.5474 4.7862-0.93674 0-1.9532-0.13194-3.0326-0.40247l-3.9538-0.9935 3.0704-12.191zm-44.138 7.2456 3.428 0.86484c5.0038 1.259 8.5782 4.0489 7.448 8.5302-0.86544 3.4478-3.5188 4.7711-6.6743 4.7711-1.1278 0-2.3198-0.16725-3.5168-0.4691-1.71-0.43312-2.8952-0.73071-3.8366-1.1786l3.1518-12.518zm-67.019 257.46c-0.11061 0-0.22123 0-0.32917 0.002v0.002c-15.221 0.17924-27.107 12.053-27.193 27.159-0.0853 15.536 12.173 27.966 27.474 27.86 14.97-0.10128 27.205-12.301 27.293-27.215 0.0939-15.432-12.069-27.805-27.246-27.807z" />
</svg>
